<?xml version="1.0" encoding="UTF-8" standalone="no"?>
<svg
   xmlns:dc="http://purl.org/dc/elements/1.1/"
   xmlns:cc="http://creativecommons.org/ns#"
   xmlns:rdf="http://www.w3.org/1999/02/22-rdf-syntax-ns#"
   xmlns:svg="http://www.w3.org/2000/svg"
   xmlns="http://www.w3.org/2000/svg"
   version="1.1"
   id="svg2"
   viewBox="0 0 744.09448819 1052.3622047"
   height="297mm"
   width="210mm">
  <defs
     id="defs4" />
  <metadata
     id="metadata7">
    <rdf:RDF>
      <cc:Work
         rdf:about="">
        <dc:format>image/svg+xml</dc:format>
        <dc:type
           rdf:resource="http://purl.org/dc/dcmitype/StillImage" />
        <dc:title></dc:title>
      </cc:Work>
    </rdf:RDF>
  </metadata>
  <g
     id="layer1">
    <g
       id="text4136"
       style="font-style:normal;font-weight:normal;font-size:35px;line-height:125%;font-family:Sans;letter-spacing:0px;word-spacing:0px;fill:#000000;fill-opacity:1;stroke:none;stroke-width:1px;stroke-linecap:butt;stroke-linejoin:miter;stroke-opacity:1">
      <g
         transform="matrix(2.5292909,0,0,2.5292909,1497.0538,-850.66236)"
         id="text4170"
         style="font-style:normal;font-weight:normal;font-size:35px;line-height:125%;font-family:Sans;letter-spacing:0px;word-spacing:0px;fill:#000000;fill-opacity:1;stroke:none;stroke-width:1px;stroke-linecap:butt;stroke-linejoin:miter;stroke-opacity:1">
        <path
           id="path4175"
           d="m -536.07444,529.2311 21.58447,0 0,2.90527 -9.05761,0 0,22.60987 -3.46924,0 0,-22.60987 -9.05762,0 0,-2.90527 z" />
        <path
           id="path4177"
           d="m -495.36643,543.1935 0,11.55274 -3.14453,0 0,-11.4502 q 0,-2.71728 -1.05957,-4.06738 -1.05957,-1.3501 -3.17871,-1.3501 -2.54639,0 -4.01612,1.62354 -1.46972,1.62353 -1.46972,4.42627 l 0,10.81787 -3.16163,0 0,-26.5918 3.16163,0 0,10.4248 q 1.12792,-1.72607 2.64892,-2.58056 1.53809,-0.85449 3.5376,-0.85449 3.29834,0 4.99023,2.05078 1.6919,2.03369 1.6919,5.99853 z" />
        <path
           id="path4179"
           d="m -489.06028,535.60561 3.14453,0 0,19.14063 -3.14453,0 0,-19.14063 z m 0,-7.45117 3.14453,0 0,3.98193 -3.14453,0 0,-3.98193 z" />
        <path
           id="path4181"
           d="m -467.1511,536.16958 0,2.97363 q -1.33301,-0.68359 -2.76856,-1.02539 -1.43554,-0.3418 -2.97363,-0.3418 -2.34131,0 -3.52051,0.71777 -1.16211,0.71778 -1.16211,2.15333 0,1.09375 0.83741,1.72607 0.8374,0.61523 3.3667,1.1792 l 1.07666,0.23926 q 3.34961,0.71777 4.75097,2.03369 1.41846,1.29883 1.41846,3.64013 0,2.66602 -2.11914,4.2212 -2.10205,1.55517 -5.79346,1.55517 -1.53808,0 -3.21289,-0.30762 -1.65771,-0.29052 -3.50342,-0.88867 l 0,-3.24707 q 1.74317,0.90576 3.43506,1.36719 1.6919,0.44434 3.34961,0.44434 2.22168,0 3.41797,-0.75196 1.19629,-0.76904 1.19629,-2.15332 0,-1.28174 -0.87158,-1.96533 -0.85449,-0.68359 -3.77686,-1.31592 l -1.09375,-0.25635 q -2.92236,-0.61523 -4.22119,-1.87988 -1.29883,-1.28174 -1.29883,-3.50342 0,-2.70019 1.91407,-4.16992 1.91406,-1.46972 5.43457,-1.46972 1.74316,0 3.28125,0.25634 1.53808,0.25635 2.83691,0.76905 z" />
        <path
           id="path4183"
           d="m -449.95872,535.60561 3.14453,0 0,19.14063 -3.14453,0 0,-19.14063 z m 0,-7.45117 3.14453,0 0,3.98193 -3.14453,0 0,-3.98193 z" />
        <path
           id="path4185"
           d="m -428.04954,536.16958 0,2.97363 q -1.33301,-0.68359 -2.76855,-1.02539 -1.43555,-0.3418 -2.97364,-0.3418 -2.3413,0 -3.5205,0.71777 -1.16211,0.71778 -1.16211,2.15333 0,1.09375 0.8374,1.72607 0.8374,0.61523 3.3667,1.1792 l 1.07666,0.23926 q 3.34961,0.71777 4.75098,2.03369 1.41845,1.29883 1.41845,3.64013 0,2.66602 -2.11914,4.2212 -2.10205,1.55517 -5.79345,1.55517 -1.53809,0 -3.2129,-0.30762 -1.65771,-0.29052 -3.50341,-0.88867 l 0,-3.24707 q 1.74316,0.90576 3.43506,1.36719 1.69189,0.44434 3.3496,0.44434 2.22168,0 3.41797,-0.75196 1.19629,-0.76904 1.19629,-2.15332 0,-1.28174 -0.87158,-1.96533 -0.85449,-0.68359 -3.77686,-1.31592 l -1.09375,-0.25635 q -2.92236,-0.61523 -4.22119,-1.87988 -1.29882,-1.28174 -1.29882,-3.50342 0,-2.70019 1.91406,-4.16992 1.91406,-1.46972 5.43457,-1.46972 1.74316,0 3.28125,0.25634 1.53808,0.25635 2.83691,0.76905 z" />
        <path
           id="path4187"
           d="m -414.25803,529.2311 21.58447,0 0,2.90527 -9.05762,0 0,22.60987 -3.46924,0 0,-22.60987 -9.05761,0 0,-2.90527 z" />
        <path
           id="path4189"
           d="m -379.03587,544.38979 0,1.53809 -14.458,0 q 0.20507,3.24707 1.94824,4.95605 1.76025,1.6919 4.88769,1.6919 1.81153,0 3.50342,-0.44434 1.70899,-0.44434 3.38379,-1.33301 l 0,2.97364 q -1.69189,0.71777 -3.46924,1.09375 -1.77734,0.37597 -3.60595,0.37597 -4.58008,0 -7.26319,-2.66601 -2.66601,-2.66602 -2.66601,-7.21192 0,-4.69971 2.52929,-7.45117 2.54639,-2.76855 6.85303,-2.76855 3.86231,0 6.10107,2.49511 2.25586,2.47803 2.25586,6.75049 z m -3.14453,-0.92285 q -0.0342,-2.58057 -1.45263,-4.11865 -1.40137,-1.53809 -3.72559,-1.53809 -2.63184,0 -4.22119,1.48682 -1.57227,1.48681 -1.81152,4.18701 l 11.21093,-0.0171 z" />
        <path
           id="path4191"
           d="m -361.67258,536.16958 0,2.97363 q -1.33301,-0.68359 -2.76856,-1.02539 -1.43555,-0.3418 -2.97363,-0.3418 -2.34131,0 -3.52051,0.71777 -1.16211,0.71778 -1.16211,2.15333 0,1.09375 0.8374,1.72607 0.83741,0.61523 3.3667,1.1792 l 1.07666,0.23926 q 3.34961,0.71777 4.75098,2.03369 1.41846,1.29883 1.41846,3.64013 0,2.66602 -2.11914,4.2212 -2.10206,1.55517 -5.79346,1.55517 -1.53809,0 -3.21289,-0.30762 -1.65772,-0.29052 -3.50342,-0.88867 l 0,-3.24707 q 1.74316,0.90576 3.43506,1.36719 1.69189,0.44434 3.34961,0.44434 2.22168,0 3.41797,-0.75196 1.19629,-0.76904 1.19629,-2.15332 0,-1.28174 -0.87159,-1.96533 -0.85449,-0.68359 -3.77685,-1.31592 l -1.09375,-0.25635 q -2.92237,-0.61523 -4.22119,-1.87988 -1.29883,-1.28174 -1.29883,-3.50342 0,-2.70019 1.91406,-4.16992 1.91406,-1.46972 5.43457,-1.46972 1.74317,0 3.28125,0.25634 1.53809,0.25635 2.83692,0.76905 z" />
        <path
           id="path4193"
           d="m -352.51243,530.17104 0,5.43457 6.47705,0 0,2.44385 -6.47705,0 0,10.39062 q 0,2.34131 0.63233,3.00782 0.64941,0.6665 2.61474,0.6665 l 3.22998,0 0,2.63184 -3.22998,0 q -3.64013,0 -5.02441,-1.3501 -1.38428,-1.36719 -1.38428,-4.95606 l 0,-10.39062 -2.30713,0 0,-2.44385 2.30713,0 0,-5.43457 3.16162,0 z" />
      </g>
    </g>
  </g>
</svg>
