<?xml version="1.0" encoding="UTF-8" standalone="no"?>
<svg
   xmlns:dc="http://purl.org/dc/elements/1.1/"
   xmlns:cc="http://creativecommons.org/ns#"
   xmlns:rdf="http://www.w3.org/1999/02/22-rdf-syntax-ns#"
   xmlns:svg="http://www.w3.org/2000/svg"
   xmlns="http://www.w3.org/2000/svg"
   version="1.1"
   id="svg2"
   viewBox="0 0 744.09448819 1052.3622047"
   height="297mm"
   width="210mm">
  <defs
     id="defs4" />
  <metadata
     id="metadata7">
    <rdf:RDF>
      <cc:Work
         rdf:about="">
        <dc:format>image/svg+xml</dc:format>
        <dc:type
           rdf:resource="http://purl.org/dc/dcmitype/StillImage" />
        <dc:title></dc:title>
      </cc:Work>
    </rdf:RDF>
  </metadata>
  <g
     id="layer1">
    <g
       id="text4136"
       style="font-style:normal;font-weight:normal;font-size:35px;line-height:125%;font-family:Sans;letter-spacing:0px;word-spacing:0px;fill:#000000;fill-opacity:1;stroke:none;stroke-width:1px;stroke-linecap:butt;stroke-linejoin:miter;stroke-opacity:1">
      <path
         id="path4141"
         style="font-style:normal;font-variant:normal;font-weight:normal;font-stretch:normal;font-size:60px;font-family:'Yu Gothic';-inkscape-font-specification:'Yu Gothic'"
         d="m -701.95453,514.60828 q -0.67383,4.51172 -0.67383,7.73437 0,5.00977 2.92969,7.06055 2.34375,1.64062 6.85547,1.64062 5.6543,0 9.05273,-2.69531 3.31055,-2.60742 3.31055,-7.14844 0,-5.12695 -5.27344,-10.48828 0.38086,0.0293 0.76172,0.0293 0.9961,0 1.99219,-0.23438 0.20508,-0.0293 0.38086,-0.0293 0.32226,0 0.52734,0.20508 4.92188,4.83398 4.92188,10.51757 0,6.21094 -5.03907,9.75586 -4.16015,2.90039 -10.13671,2.90039 -13.21289,0 -13.21289,-11.39648 0,-3.39844 0.67382,-8.02734 -5.5957,-0.52735 -9.96093,-1.875 -0.41016,-0.0879 -0.49805,-0.64454 -0.0879,-0.64453 -0.0879,-1.49414 0,-0.49804 0.0293,-1.02539 4.5996,1.64063 10.86914,2.25586 l 1.49414,-11.2207 q -6.21094,-0.61524 -10.66407,-1.9043 -0.41015,-0.14648 -0.49804,-0.73242 0,-1.55273 -0.0586,-2.46094 5.39063,1.875 11.71875,2.34375 0.76172,-5.41992 0.87891,-6.5332 0.23437,-1.875 0.23437,-3.39844 0,-1.34765 -0.17578,-2.54883 2.49024,0.43946 4.13086,1.31836 0.73242,0.32227 0.73242,0.79102 0,0.26367 -0.41015,0.79101 -0.84961,0.9668 -1.20117,2.8711 -0.87891,5.15625 -1.20118,6.94336 2.02149,0.17578 4.18946,0.17578 2.43164,0 4.6289,-0.23438 0.29297,0 0.29297,0.41016 0,1.46484 -0.0586,2.05078 0,0.49805 -0.46875,0.49805 -2.05078,0.11719 -4.18945,0.11719 -2.60743,0 -4.86329,-0.17579 -0.11718,0.79102 -1.64062,11.16211 2.08008,0.14649 4.27734,0.14649 2.98828,0 5.80078,-0.26367 0.11719,-0.0293 0.23438,-0.0293 0.43945,0 0.43945,0.38086 0,1.37695 -0.0586,1.9043 -0.0879,0.55664 -0.41016,0.55664 -2.40234,0.17578 -5.18554,0.17578 -2.78321,0 -5.39063,-0.17578 z" />
      <path
         id="path4143"
         style="font-style:normal;font-variant:normal;font-weight:normal;font-stretch:normal;font-size:60px;font-family:'Yu Gothic';-inkscape-font-specification:'Yu Gothic'"
         d="m -625.75336,519.82312 q -0.49804,-8.17383 -0.49804,-17.75391 -4.21875,0.29297 -7.91016,0.29297 -2.92969,0 -5.83008,-0.17578 -0.41015,0 -0.46875,-0.41015 -0.17578,-1.99219 -0.17578,-2.60743 3.36914,0.29297 6.88477,0.29297 3.54492,0 7.4414,-0.29297 l 0.0586,-7.11914 q 0,-2.87109 -0.52735,-5.09765 2.51953,0.29297 3.83789,0.76172 0.46875,0.20507 0.46875,0.61523 0,0.26367 -0.17578,0.70312 -0.43945,0.84961 -0.52734,3.13477 -0.14649,4.42383 -0.14649,6.76758 4.92188,-0.43945 9.84375,-1.61133 0.38086,0 0.43946,0.29297 0.17578,0.73242 0.17578,2.05078 0,0.49805 -0.29297,0.58594 -4.77539,1.11328 -10.16602,1.52344 0.11719,11.27929 0.61524,18.95507 5.83008,2.34375 10.48828,6.15235 0.20508,0.17578 0.20508,0.29297 0,0.0879 -0.0879,0.32226 -0.49805,1.14258 -1.25977,1.99219 -0.17578,0.17578 -0.26367,0.17578 -0.0879,0 -0.26367,-0.11719 -4.95117,-4.16015 -8.81836,-5.77148 -0.26367,8.29101 -9.78516,8.29101 -4.36523,0 -6.70898,-1.8164 -2.16797,-1.66992 -2.16797,-4.54102 0,-3.39844 3.10547,-5.30273 2.43164,-1.49414 5.71289,-1.49414 3.28125,0 6.79687,0.9082 z m 0,2.87109 q -3.33984,-1.25976 -6.97265,-1.25976 -2.95899,0 -4.59961,1.28906 -1.46485,1.14258 -1.46485,3.04688 0,1.875 1.9336,2.87109 1.61133,0.84961 4.18945,0.84961 6.91406,0 6.91406,-5.6543 0,-0.76172 0,-1.14258 z m -27.80273,-35.33203 q 2.54883,0.58594 3.7207,1.31836 0.55664,0.35156 0.55664,0.76172 0,0.26367 -0.20508,0.55664 -0.84961,1.28906 -1.20117,2.8711 -2.87109,15.14648 -2.87109,22.26562 0,7.32422 0.67383,11.33789 0.9375,-2.40234 4.30664,-10.25391 0.46875,1.25977 1.14258,2.05079 0.23437,0.23437 0.23437,0.49804 0,0.23438 -0.17578,0.58594 -3.42774,7.76367 -3.7207,9.63867 -0.14649,1.05469 -0.14649,1.61133 0,0.49805 0.0879,0.84961 0.0586,0.26367 0.0586,0.38086 0,0.29297 -0.23438,0.41016 -0.87891,0.46875 -2.16797,0.70312 -0.0879,0.0293 -0.14648,0.0293 -0.26367,0 -0.43946,-0.43946 -2.34375,-5.88867 -2.34375,-17.22656 0,-6.91406 2.63672,-22.4414 0.35157,-2.22657 0.35157,-3.92579 0,-0.9082 -0.11719,-1.58203 z" />
      <path
         id="path4145"
         style="font-style:normal;font-variant:normal;font-weight:normal;font-stretch:normal;font-size:60px;font-family:'Yu Gothic';-inkscape-font-specification:'Yu Gothic'"
         d="m -584.41547,501.95203 q 6.44532,-2.66602 10.57618,-4.10157 6.59179,-2.40234 11.68945,-2.40234 5.18555,0 8.14453,2.75391 2.72461,2.54882 2.72461,6.67968 0,5.88868 -4.7168,8.67188 -3.7207,2.19726 -9.87304,2.19726 -1.55274,0 -2.46094,-0.11718 -0.70313,-0.0879 -0.79102,-0.41016 -0.26367,-1.25976 -1.25976,-2.72461 2.7832,0.38086 4.45312,0.38086 5.30274,0 8.32031,-2.13867 3.01758,-2.10938 3.01758,-6.03516 0,-6.5039 -7.67578,-6.5039 -4.54101,0 -10.3125,2.05078 -2.08008,0.73242 -10.86914,4.33594 3.86719,10.83984 9.84375,28.125 0.11719,0.32226 0.11719,0.46875 0,0.29296 -0.41016,0.49804 -0.9082,0.43946 -2.34375,0.76172 -0.11719,0.0293 -0.17578,0.0293 -0.17578,0 -0.29297,-0.32227 -4.95117,-15.8789 -9.49219,-28.35937 -3.6914,1.61133 -7.55859,3.33984 -1.9043,0.84961 -3.13477,1.93359 -0.41015,0.41016 -0.79101,0.41016 -0.49805,0 -0.87891,-0.46875 -1.25976,-1.34766 -2.22656,-3.19336 2.28516,-0.32226 6.12305,-1.72851 3.01758,-1.11329 7.4414,-2.98829 -1.8457,-5.15625 -2.51953,-6.79687 -1.17187,-2.90039 -2.69531,-5.21484 2.51953,-0.41016 4.24805,-0.41016 0.73242,0 0.73242,0.82031 0,0.0293 0,0.14649 -0.0293,0.14648 -0.0293,0.35156 0,0.49805 0.14649,1.14258 0.26367,1.34765 0.9082,3.10547 0.38086,1.14257 1.17187,3.28125 0.58594,1.66992 0.84961,2.43164 z m 7.67578,-15 q 1.05469,-0.9668 2.10938,-1.61133 0.26367,-0.17578 0.38086,-0.17578 0.14648,0 0.41016,0.17578 3.36914,2.22656 6.4746,5.80078 0.17579,0.17578 0.17579,0.35156 0,0.17578 -0.17579,0.35156 -0.70312,0.76172 -1.75781,1.52344 -0.14648,0.11719 -0.32226,0.11719 -0.17578,0 -0.32227,-0.17578 -3.19336,-4.16016 -6.97266,-6.35742 z" />
      <path
         id="path4147"
         style="font-style:normal;font-variant:normal;font-weight:normal;font-stretch:normal;font-size:60px;font-family:'Yu Gothic';-inkscape-font-specification:'Yu Gothic'"
         d="m -531.41742,513.05554 q 0.32227,0.14649 1.78711,0.9375 0.32227,0.17578 0.32227,0.38086 0,0.14649 -0.14649,0.35156 -1.55273,2.34375 -1.55273,4.80469 0,7.88086 15.55664,7.88086 9.99023,0 17.46093,-1.75781 0.20508,-0.0586 0.32227,-0.0586 0.26367,0 0.38086,0.46875 0.26367,1.05469 0.38086,2.16797 0,0.0879 0,0.14649 0,0.38086 -0.67383,0.52734 -7.41211,1.61133 -18.19336,1.61133 -17.98828,0 -17.98828,-10.98633 0,-3.22265 2.34375,-6.47461 z m 1.78711,-22.32422 q 6.06445,1.31836 14.17969,1.31836 7.35351,0 13.41797,-0.61523 0.0879,0 0.17578,0 0.46875,0 0.61523,0.55664 0.17578,0.79101 0.17578,1.8457 0,0.70313 -0.84961,0.79102 -4.95117,0.64453 -15.52734,7.14844 -0.41016,0.29296 -0.76172,0.29296 -0.26367,0 -0.49805,-0.17578 -0.82031,-0.64453 -1.78711,-0.9082 6.6211,-4.24805 11.07422,-6.35742 -3.31054,0.17578 -7.23632,0.17578 -6.82618,0 -12.62696,-1.14258 -0.41015,-0.0879 -0.41015,-0.73242 0,-1.49414 0.0586,-2.19727 z" />
      <path
         id="path4149"
         style="font-style:normal;font-variant:normal;font-weight:normal;font-stretch:normal;font-size:60px;font-family:'Yu Gothic';-inkscape-font-specification:'Yu Gothic'"
         d="m -467.69672,485.07703 q 2.10938,0.17578 3.63282,0.67382 0.79101,0.26368 0.79101,0.82032 0,0.29297 -0.23437,0.67383 -0.46875,0.64453 -0.52735,2.10937 -0.41015,4.7168 -0.55664,8.70117 1.40625,0.73242 2.10938,1.37696 0.23437,0.23437 0.23437,0.46875 0,0.23437 -0.23437,0.61523 -1.43555,2.40234 -2.34375,4.18945 -0.17578,1.52344 -0.17578,3.22266 2.22656,-2.63672 7.03125,-7.41211 6.00586,-6.00586 10.66406,-6.00586 6.18164,0 6.18164,7.32422 0,2.8125 -0.61524,11.2207 -0.52734,7.76367 -0.52734,9.84375 0,3.04688 0.9375,4.16016 0.73242,0.8789 2.25586,0.8789 2.7832,0 5.15625,-2.28515 2.22656,-2.37305 3.7207,-5.88867 0.29297,1.58203 1.02539,2.51953 0.32227,0.43945 0.32227,0.82031 0,0.35156 -0.26367,0.79102 -4.16016,6.91406 -10.01953,6.91406 -6.18164,0 -6.18164,-7.32422 0,-2.8125 0.46875,-10.3125 0.46875,-7.85156 0.46875,-10.51758 0,-5.50781 -2.98829,-5.50781 -3.48632,0 -8.58398,4.74609 -3.36914,3.07617 -9.16992,9.63867 0,2.8711 0.14648,10.72266 0.11719,7.20703 0.14649,11.68945 0,0.41016 -0.46875,0.46875 -1.08399,0.11719 -2.34375,0.11719 -0.35157,0 -0.35157,-0.52734 0,-6.32813 0.17579,-21.26953 -3.25196,4.54101 -9.60938,13.97461 -0.26367,0.38086 -0.49805,0.38086 -0.11718,0 -0.35156,-0.14649 -0.79101,-0.49805 -1.66992,-1.49414 -0.14648,-0.17578 -0.14648,-0.35156 0,-0.23438 0.26367,-0.55664 7.03125,-9.14063 12.07031,-16.96289 0.14648,-5.59571 0.17578,-6.00586 -4.27734,1.28906 -8.58398,2.98828 -0.29297,0.11719 -0.90821,0.55664 -0.43945,0.29297 -0.64453,0.29297 -0.43945,0 -0.79101,-0.46875 -1.02539,-1.46485 -1.55274,-2.75391 1.84571,0 4.13086,-0.61523 3.69141,-0.9668 8.4668,-2.57813 l 0.23437,-7.96875 q 0,-3.63281 -0.46875,-5.94726 z" />
      <path
         id="path4151"
         style="font-style:normal;font-variant:normal;font-weight:normal;font-stretch:normal;font-size:60px;font-family:'Yu Gothic';-inkscape-font-specification:'Yu Gothic'"
         d="m -396.41742,521.14148 q -0.32227,-4.04297 -0.41016,-10.54688 -3.31054,0.14649 -6.18164,0.14649 -4.21875,0 -7.82226,-0.35156 -0.52735,-0.0586 -0.58594,-0.58594 -0.11719,-1.20117 -0.11719,-2.34375 4.04297,0.49805 9.31641,0.49805 2.66601,0 5.33203,-0.14649 -0.0879,-2.92969 -0.0879,-9.69726 -3.54492,0.17578 -6.79688,0.17578 -4.92187,0 -9.46289,-0.41016 -0.35156,-0.0879 -0.41015,-0.49805 -0.17578,-2.16796 -0.17578,-2.46093 5.12695,0.58593 10.78125,0.58593 2.92968,0 6.06445,-0.17578 0,-4.13086 -0.0586,-6.41601 -0.0586,-2.57813 -0.58594,-3.83789 2.7832,0.32226 4.01367,0.73242 0.64453,0.23437 0.64453,0.76172 0,0.23437 -0.14648,0.43945 -0.64453,0.9082 -0.73242,2.69531 -0.17579,3.22266 -0.17579,5.50782 7.67579,-0.41016 14.91211,-1.9629 0.17578,-0.0293 0.23438,-0.0293 0.26367,0 0.32226,0.32226 0.17579,1.08399 0.17579,2.16797 0,0.35156 -0.35157,0.41016 -6.44531,1.20117 -15.29297,1.78711 0,6.67969 0.0586,9.72656 7.61719,-0.49805 13.62304,-1.8457 0.11719,-0.0293 0.17579,-0.0293 0.29296,0 0.35156,0.26367 0,1.43555 0,2.16797 0,0.43945 -0.46875,0.52734 -5.71289,1.17188 -13.62305,1.66993 0,5.24414 0.46875,11.48437 8.4082,2.28516 16.14258,7.79297 0.26367,0.26367 0.26367,0.49805 0,0.14648 -0.0879,0.35156 -0.41016,0.87891 -1.08398,1.8457 -0.20508,0.26367 -0.41016,0.26367 -0.11719,0 -0.29297,-0.0879 -7.23633,-5.53711 -14.41406,-7.73437 0.0293,0.35156 0.0293,0.49805 0,4.98046 -2.90039,7.03125 -2.43165,1.75781 -7.44141,1.75781 -5.33203,0 -7.96875,-2.02149 -2.16797,-1.66992 -2.16797,-4.51171 0,-3.25196 3.16406,-5.18555 2.90039,-1.75781 7.64649,-1.75781 3.57422,0 6.5332,0.52734 z m 0,2.87109 q -3.86719,-0.82031 -6.67969,-0.82031 -4.07226,0 -6.21093,1.34766 -1.75782,1.11328 -1.75782,2.84179 0,4.01368 7.03125,4.01368 4.6875,0 6.38672,-1.84571 1.28906,-1.40625 1.28906,-4.36523 0,-0.61524 -0.0586,-1.17188 z" />
      <path
         id="path4153"
         style="font-style:normal;font-variant:normal;font-weight:normal;font-stretch:normal;font-size:60px;font-family:'Yu Gothic';-inkscape-font-specification:'Yu Gothic'"
         d="m -322.76508,504.70593 1.81641,-1.25976 q 0.11719,-0.0879 0.23438,-0.0879 0.0879,0 0.23437,0.0879 3.45703,2.34375 6.76758,7.26562 0.11719,0.14649 0.11719,0.23438 0,0.11718 -0.14649,0.29297 l -1.43555,1.20117 q -0.14648,0.14648 -0.29296,0.14648 -0.17579,0 -0.38086,-0.26367 -3.01758,-4.80469 -6.91407,-7.61719 z m 5.06836,-3.7207 1.55274,-1.20117 q 0.17578,-0.14649 0.32226,-0.14649 0.0879,0 0.20508,0.0879 4.07227,2.95899 6.76758,6.88477 0.11719,0.17578 0.11719,0.32227 0,0.17578 -0.20508,0.35156 l -1.40625,1.20117 q -0.11719,0.0879 -0.23438,0.0879 -0.17578,0 -0.35156,-0.23437 -2.87109,-4.45313 -6.76758,-7.35352 z m -41.89453,-4.51172 q 0.32227,0.0293 0.58594,0.0293 2.63672,0 6.73828,-0.61524 18.83789,-2.95898 36.94336,-5.15625 0.0879,-0.0293 0.23438,-0.0293 0.52734,0 0.67382,0.43945 0.29297,0.99609 0.29297,2.28516 0,0.52734 -0.67383,0.58593 -5.50781,0.29297 -9.28711,1.99219 -7.08984,3.13477 -11.33789,8.52539 -4.01367,5.12695 -4.01367,10.81055 0,7.55859 6.65039,11.04492 4.04297,2.10938 11.16211,2.87109 0.84961,0.0586 0.84961,0.46875 0,0.9668 -0.23437,2.16797 -0.14649,0.73242 -0.67383,0.73242 -0.11719,0 -0.23438,0 -9.49218,-0.8789 -14.79492,-4.86328 -5.83008,-4.36523 -5.83008,-12.07031 0,-6.82617 4.65821,-12.45117 4.04297,-4.92188 11.16211,-8.37891 l -0.0586,-0.17578 q -15.8789,2.37305 -26.10351,4.57031 -2.49024,0.49805 -3.33985,0.9668 -0.73242,0.41016 -1.08398,0.41016 -0.55664,0 -0.79102,-0.46875 -0.9082,-1.69922 -1.49414,-3.69141 z" />
    </g>
  </g>
</svg>
