<?xml version="1.0" encoding="utf-8"?>
<!-- Generator: Adobe Illustrator 12.0.0, SVG Export Plug-In . SVG Version: 6.00 Build 51448)  -->
<!DOCTYPE svg PUBLIC "-//W3C//DTD SVG 1.1//EN" "http://www.w3.org/Graphics/SVG/1.1/DTD/svg11.dtd" [
	<!ENTITY ns_svg "http://www.w3.org/2000/svg">
	<!ENTITY ns_xlink "http://www.w3.org/1999/xlink">
]>
<svg  version="1.1" id="レイヤー_1" xmlns="&ns_svg;" xmlns:xlink="&ns_xlink;" width="229.63" height="277.869"
	 viewBox="0 0 229.63 277.869" overflow="visible" enable-background="new 0 0 229.63 277.869" xml:space="preserve">
<g>
	<path d="M1.056,151.456h41.04l-1.056,5.943h-14.4l-4.32,9.744H9.504l4.32-9.744H0L1.056,151.456z M2.928,140.744l41.04-0.007
		l-1.056,5.969H1.872L2.928,140.744z"/>
	<path d="M54.368,136.769h-6.06l1.01-5.817l6.058,0.005L54.368,136.769z M64.628,130.956l-1.008,5.813h-6.048l1.008-5.817
		L64.628,130.956z"/>
	<path d="M84.575,155.863H68.927l1.056-5.938h15.648L84.575,155.863z M86.207,146.706H70.559l1.008-5.962l15.696-0.007
		L86.207,146.706z M98.303,140.744l12.864-0.007l-16.416,26.406H81.935L98.303,140.744z"/>
	<path d="M121.566,136.769h-6.06l1.01-5.817l6.058,0.005L121.566,136.769z M131.827,130.956l-1.008,5.813h-6.048l1.008-5.817
		L131.827,130.956z"/>
	<path d="M181.678,140.737l-11.712,26.406H157.15l9.072-20.448h-12.48l-4.8,10.801h-12.816l7.44-16.759H181.678z"/>
	<path d="M199.39,151.543h3.553l-1.057,5.953h-16.368l2.976-16.752l12.816-0.007L199.39,151.543z M217.918,167.144h-12.864
		l11.76-26.399l12.816-0.007L217.918,167.144z"/>
</g>
</svg>
